<?xml version="1.0" encoding="UTF-8"?>
<svg id="katman_2" data-name="katman 2" xmlns="http://www.w3.org/2000/svg" viewBox="0 0 287.34 36.78">
  <defs>
    <style>
      .cls-1 {
        fill: #fff;
      }

      .cls-2 {
        fill: #dc2727;
      }
    </style>
  </defs>
  <g id="katman_1" data-name="katman 1">
    <g>
      <path class="cls-1" d="M246.93,0l21.5,22.56,13.19-21.51L287.34,0l-17.23,36.69h-3.35L241.21,0h5.72Z"/>
      <polygon class="cls-2" points="47.33 0 34.18 8.71 8.62 8.71 8.62 29.55 34.07 29.55 47.33 36.7 0 36.7 0 0 47.33 0"/>
      <polygon class="cls-2" points="133.16 .05 115.25 21.85 112.95 36.78 107.85 36.78 104.27 21.85 83.58 .05 90.78 .05 109.93 16.85 125.95 .05 133.16 .05"/>
      <path class="cls-1" d="M184.93,32.42l15.99-15.72-22.52-12.42L177.15,0l33.84,15.45v2.51l-24.77,18.74-1.3-4.28Z"/>
      <path class="cls-2" d="M84.34,18.89l-1.61-4.21L77.14,0h-19.22l-3.9,15.61-1.11,4.43-4.17,16.65h4.94l6.86-13.08,6.16,2.88h4.22l6.17-3.5,9.1,13.7h4.94l-6.79-17.81ZM68.81,20.5l-5.65-1.87,4.87-9.3,5.97,8.99-5.19,2.17Z"/>
      <path class="cls-2" d="M165.49,18.89l-1.61-4.21L158.29,0h-19.22l-3.9,15.61-1.11,4.43-4.17,16.65h4.94l6.86-13.08,6.16,2.88h4.22l6.17-3.5,9.1,13.7h4.94l-6.79-17.81ZM149.96,20.5l-5.65-1.87,4.87-9.3,5.97,8.99-5.19,2.17Z"/>
      <polygon class="cls-1" points="174.93 0 166.64 0 178.65 36.78 184.39 36.7 174.93 0"/>
      <polygon class="cls-1" points="243.91 36.7 227.66 36.7 221.91 36.78 209.91 0 218.19 0 218.19 .01 239.17 0 237.85 3.22 219.83 6.36 222.09 15.13 237.15 15.13 237.38 19.11 223.73 21.48 226.04 30.41 241.59 33.12 243.91 36.7"/>
    </g>
  </g>
</svg>