<svg width="512" height="512" viewBox="0 0 512 512" xmlns="http://www.w3.org/2000/svg">
  <defs>
    <linearGradient id="bg" x1="0" y1="0" x2="1" y2="1">
      <stop offset="0" stop-color="#1c1622"/>
      <stop offset="0.55" stop-color="#131219"/>
      <stop offset="1" stop-color="#0b0b10"/>
    </linearGradient>
    <radialGradient id="glow" cx="0.32" cy="0.26" r="0.85">
      <stop offset="0" stop-color="#dc2727" stop-opacity="0.5"/>
      <stop offset="0.45" stop-color="#dc2727" stop-opacity="0.1"/>
      <stop offset="1" stop-color="#dc2727" stop-opacity="0"/>
    </radialGradient>
    <linearGradient id="c" x1="0.15" y1="0.05" x2="0.85" y2="0.95">
      <stop offset="0" stop-color="#f04444"/>
      <stop offset="1" stop-color="#a81d1d"/>
    </linearGradient>
    <filter id="ds" x="-25%" y="-25%" width="150%" height="150%">
      <feDropShadow dx="0" dy="7" stdDeviation="12" flood-color="#dc2727" flood-opacity="0.55"/>
    </filter>
  </defs>

  <rect x="16" y="16" width="480" height="480" rx="116" fill="url(#bg)"/>
  <rect x="16" y="16" width="480" height="480" rx="116" fill="url(#glow)"/>
  <rect x="17" y="17" width="478" height="478" rx="115" fill="none" stroke="#dc2727" stroke-opacity="0.35" stroke-width="2"/>

  <!-- angular CaYaDev "C" -->
  <path filter="url(#ds)" fill="url(#c)"
    d="M 330 106 L 150 106 L 106 150 L 106 362 L 150 406 L 330 406 L 330 332 L 180 332 L 180 180 L 330 180 Z"/>

  <!-- emitted block / spark -->
  <rect x="356" y="232" width="48" height="48" rx="9" fill="url(#c)" transform="rotate(45 380 256)"/>
</svg>
